<?xml version="1.0" encoding="UTF-8"?>
<svg xmlns="http://www.w3.org/2000/svg" xmlns:xlink="http://www.w3.org/1999/xlink" width="24pt" height="24pt" viewBox="0 0 24 24" version="1.1">
<g id="surface10142874">
<path style=" stroke:none;fill-rule:nonzero;fill:rgb(20%,20%,20%);fill-opacity:1;" d="M 8.25 2.5 C 7.835938 2.5 7.5 2.835938 7.5 3.25 L 7.5 7 L 5.75 7 C 3.6875 7 2 8.6875 2 10.75 L 2 17.75 C 2 19.8125 3.6875 21.5 5.75 21.5 L 18.25 21.5 C 20.3125 21.5 22 19.8125 22 17.75 L 22 10.75 C 22 8.6875 20.3125 7 18.25 7 L 16.5 7 L 16.5 3.25 C 16.5 2.835938 16.164062 2.5 15.75 2.5 Z M 9 4 L 15 4 L 15 7 L 9 7 Z M 5.75 8.5 L 18.25 8.5 C 19.5 8.5 20.5 9.5 20.5 10.75 L 20.5 17.75 C 20.5 19 19.5 20 18.25 20 L 5.75 20 C 4.5 20 3.5 19 3.5 17.75 L 3.5 10.75 C 3.5 9.5 4.5 8.5 5.75 8.5 Z M 5.75 8.5 "/>
</g>
</svg>
