<svg height="512pt" viewBox="0 -11 512 512" width="512pt" xmlns="http://www.w3.org/2000/svg"><path d="m484.5 35h-166.855469l-3.113281-13.628906c-2.878906-12.582032-13.902344-21.371094-26.808594-21.371094h-260.222656c-15.164062 0-27.5 12.335938-27.5 27.5v350c0 15.164062 12.335938 27.5 27.5 27.5h208.570312c2.203126 12.789062 10.839844 23.582031 23.265626 28.445312l12.074218 4.726563c2.289063 6.875 7.222656 12.546875 13.589844 15.8125v12.515625c0 12.957031 10.542969 23.5 23.5 23.5h78c12.957031 0 23.5-10.542969 23.5-23.5v-12.519531c8.894531-4.558594 15-13.816407 15-24.480469v-54.5h44.5c6.894531 0 12.5-5.605469 12.5-12.5v-277.5h15v292.5c0 6.894531-5.605469 12.5-12.5 12.5h-32c-4.144531 0-7.5 3.359375-7.5 7.5s3.355469 7.5 7.5 7.5h32c15.164062 0 27.5-12.335938 27.5-27.5v-315c0-15.164062-12.335938-27.5-27.5-27.5zm-184.59375-10.285156 2.351562 10.285156h-64.613281l-3.113281-13.628906c-.515625-2.257813-1.304688-4.386719-2.308594-6.371094h55.5c5.867188 0 10.878906 3.996094 12.183594 9.714844zm-92.183594-9.714844c5.867188 0 10.878906 3.996094 12.1875 9.714844l2.347656 10.285156h-72.777343l-3.117188-13.628906c-.515625-2.257813-1.304687-4.386719-2.308593-6.371094zm-180.222656 0h92.054688c5.867187 0 10.878906 3.996094 12.1875 9.714844l4.445312 19.457031c.78125 3.410156 3.816406 5.828125 7.3125 5.828125h341c6.894531 0 12.5 5.609375 12.5 12.5v7.5h-482v-42.5c0-6.894531 5.605469-12.5 12.5-12.5zm223 383.523438v-41.6875c0-5.351563 4.351562-9.726563 9.703125-9.75 2.621094-.019532 5.074219.992187 6.925781 2.835937 1.851563 1.84375 2.867188 4.296875 2.867188 6.90625l.003906 25.171875v39.511719l-5.199219-2.035157c-8.6875-3.398437-14.300781-11.625-14.300781-20.953124zm175.5-158.523438v45h-42.941406v-45zm-57.941406 45h-48.058594v-6.542969c0-6.820312-2.8125-13.492187-7.710938-18.300781-4.824218-4.738281-11.128906-7.265625-17.765624-7.152344-13.519532.253906-24.523438 11.46875-24.523438 24.996094v7h-28v-45h126.058594zm18.441406 190h-78c-4.6875 0-8.5-3.8125-8.5-8.5v-9.5h95v9.5c0 4.6875-3.8125 8.5-8.5 8.5zm23.5-45.5c0 6.894531-5.605469 12.5-12.5 12.5h-100c-6.894531 0-12.5-5.605469-12.5-12.5v-151.5c0-5.410156 4.398438-9.898438 9.808594-10h.171875c2.507812 0 4.917969 1.011719 6.800781 2.859375 2.046875 2.007813 3.21875 4.777344 3.21875 7.597656v92.542969c0 4.140625 3.359375 7.5 7.5 7.5 4.144531 0 7.5-3.359375 7.5-7.5v-18c0-5.515625 4.488281-10 10-10 5.515625 0 10 4.484375 10 10v18c0 4.140625 3.359375 7.5 7.5 7.5 4.144531 0 7.5-3.359375 7.5-7.5v-18c0-5.515625 4.488281-10 10-10 5.515625 0 10 4.484375 10 10v18c0 4.140625 3.359375 7.5 7.5 7.5 4.144531 0 7.5-3.359375 7.5-7.5v-18c0-5.410156 4.398438-9.898438 9.808594-10 2.5625-.050781 5.046875.96875 6.976562 2.859375 2.042969 2.007813 3.21875 4.777344 3.21875 7.597656v76.042969zm57-69.5h-42v-6.542969c0-6.820312-2.8125-13.492187-7.710938-18.300781-4.824218-4.738281-11.09375-7.269531-17.765624-7.152344-6.589844.125-12.585938 2.851563-16.996094 7.183594-4.515625-4.441406-10.707032-7.1875-17.527344-7.1875-6.808594 0-12.988281 2.734375-17.5 7.164062-4.511719-4.429687-10.691406-7.164062-17.5-7.164062-3.554688 0-6.9375.746094-10 2.085938v-30.085938h108.5c6.894531 0 12.5-5.605469 12.5-12.5v-50c0-6.894531-5.605469-12.5-12.5-12.5h-189c-6.894531 0-12.5 5.605469-12.5 12.5v50c0 6.894531 5.605469 12.5 12.5 12.5h30.5v34.074219c-3.039062-1.300781-6.339844-1.988281-9.746094-1.988281-.039062 0-.082031 0-.121094 0-13.582031.0625-24.632812 11.167968-24.632812 24.75v3.164062h-190.5v-247.5c0-4.140625-3.355469-7.5-7.5-7.5s-7.5 3.359375-7.5 7.5v250c0 6.894531 5.605469 12.5 12.5 12.5h193v15h-208c-6.894531 0-12.5-5.605469-12.5-12.5v-292.5h452zm0 0"/><path d="m239.5 210h189c6.894531 0 12.5-5.605469 12.5-12.5v-50c0-6.894531-5.605469-12.5-12.5-12.5h-189c-6.894531 0-12.5 5.605469-12.5 12.5v50c0 6.894531 5.605469 12.5 12.5 12.5zm186.5-15h-42.941406v-45h42.941406zm-184-45h126.058594v45h-126.058594zm0 0"/><path d="m78 150h112c4.144531 0 7.5-3.359375 7.5-7.5s-3.355469-7.5-7.5-7.5h-112c-4.144531 0-7.5 3.359375-7.5 7.5s3.355469 7.5 7.5 7.5zm0 0"/><path d="m78 180h112c4.144531 0 7.5-3.359375 7.5-7.5s-3.355469-7.5-7.5-7.5h-112c-4.144531 0-7.5 3.359375-7.5 7.5s3.355469 7.5 7.5 7.5zm0 0"/><path d="m78 210h78c4.144531 0 7.5-3.359375 7.5-7.5s-3.355469-7.5-7.5-7.5h-78c-4.144531 0-7.5 3.359375-7.5 7.5s3.355469 7.5 7.5 7.5zm0 0"/><path d="m78 240h112c4.144531 0 7.5-3.359375 7.5-7.5s-3.355469-7.5-7.5-7.5h-112c-4.144531 0-7.5 3.359375-7.5 7.5s3.355469 7.5 7.5 7.5zm0 0"/><path d="m78 270h78c4.144531 0 7.5-3.359375 7.5-7.5s-3.355469-7.5-7.5-7.5h-78c-4.144531 0-7.5 3.359375-7.5 7.5s3.355469 7.5 7.5 7.5zm0 0"/><path d="m78 299h48c4.144531 0 7.5-3.359375 7.5-7.5s-3.355469-7.5-7.5-7.5h-48c-4.144531 0-7.5 3.359375-7.5 7.5s3.355469 7.5 7.5 7.5zm0 0"/><path d="m49 50h51c4.144531 0 7.5-3.359375 7.5-7.5s-3.355469-7.5-7.5-7.5h-51c-4.144531 0-7.5 3.359375-7.5 7.5s3.355469 7.5 7.5 7.5zm0 0"/></svg>